PathFileType	4	(X/Y/Z)	RBDS027\RBDS027runT45.trc
DataRate	CameraRate	NumFrames	NumMarkers	Units	OrigDataRate	OrigDataStartFrame	OrigNumFrames
150.000000	150.000000	4	33	mm	150.000000	2250	4500
Frame#	Time	L.ASIS			L.Heel.Bottom			L.Heel.Lateral			L.Heel.Top			L.Iliac.Crest			L.MT1			L.MT5			L.PSIS			L.Shank.Bottom.Lateral			L.Shank.Bottom.Medial			L.Shank.Top.Lateral			L.Shank.Top.Medial			L.Thigh.Bottom.Lateral			L.Thigh.Bottom.Medial			L.Thigh.Top.Lateral			L.Thigh.Top.Medial			R.ASIS			R.ASY			R.Heel.Bottom			R.Heel.Lateral			R.Heel.Top			R.Iliac.Crest			R.MT1			R.MT5			R.PSIS			R.Shank.Bottom.Lateral			R.Shank.Bottom.Medial			R.Shank.Top.Lateral			R.Shank.Top.Medial			R.Thigh.Bottom.Lateral			R.Thigh.Bottom.Medial			R.Thigh.Top.Lateral			R.Thigh.Top.Medial			
		X1	Y1	Z1	X2	Y2	Z2	X3	Y3	Z3	X4	Y4	Z4	X5	Y5	Z5	X6	Y6	Z6	X7	Y7	Z7	X8	Y8	Z8	X9	Y9	Z9	X10	Y10	Z10	X11	Y11	Z11	X12	Y12	Z12	X13	Y13	Z13	X14	Y14	Z14	X15	Y15	Z15	X16	Y16	Z16	X17	Y17	Z17	X18	Y18	Z18	X19	Y19	Z19	X20	Y20	Z20	X21	Y21	Z21	X22	Y22	Z22	X23	Y23	Z23	X24	Y24	Z24	X25	Y25	Z25	X26	Y26	Z26	X27	Y27	Z27	X28	Y28	Z28	X29	Y29	Z29	X30	Y30	Z30	X31	Y31	Z31	X32	Y32	Z32	X33	Y33	Z33	

2251	15	2081.074201922875	838.5188672900817	860.8484512652088	1715.23948360696	50.48523357277364	989.229413986516	1745.933164919324	67.89838285934717	942.8824151691459	1738.260924900278	95.69915633224184	991.5900617446725	2028.484894473823	907.4404575151583	842.0187103574278	1936.756806444474	33.20818679912	1007.173606293989	1887.241506715388	36.94311683916119	902.4158265251848	1939.683242811366	873.3939584700516	978.0287369920343	1835.014517888802	146.6422717919597	916.3771924888653	1807.117232038432	176.3100672039657	954.739358468521	1864.039811317199	216.3278934937508	887.1858266681922	1842.568829454984	244.2570760641809	928.2759759961045	2008.33829359277	480.0634306415457	831.0306852490737	1960.656074624845	471.9855330924827	883.3338724248989	1977.500230065487	585.821657693212	823.5605420264225	1933.958552110933	579.2058919835107	875.050488474912	2125.609652570653	818.4513279138575	1120.567509844592	1837.837469655427	326.7719803000737	1084.733003562132	1829.31432006367	513.6845064102507	1054.340862611583	1838.09806380246	484.2269040460005	1101.005755534212	1868.670179652598	491.8965710185471	1056.834590461387	2084.771479825969	909.3590335414216	1151.273411758602	1777.207956133998	302.4730213344594	1035.870651264164	1787.838515666097	346.7349331801993	1144.05414961811	1961.422686607521	863.3536573759296	1068.496477012475	1932.167081007378	442.5239807954304	1118.280267823503	1938.401265759441	471.4509703696655	1077.213876583802	2014.055820761539	451.9780320099796	1137.1043534174	2016.686138530197	483.2809187652475	1094.53696267689	2199.542616398518	484.1677607329219	1172.92524576847	2159.983484296504	469.6654875987172	1118.245636333716	2127.246327014941	565.9931719259886	1180.831887075315	2084.259688137893	535.4244947475164	1135.864590110464	
2252	15.00666666666667	2082.852482931685	840.4078687029731	859.7185403961953	1686.446275292024	58.53351908318667	989.0712211800194	1717.817511765535	74.34553613479012	942.5513691079819	1711.031847657676	102.976766049479	991.0948917777744	2031.927942411394	910.8046577946857	840.1903547151724	1906.392555343094	32.28793136802948	1007.699892595147	1857.664560147809	37.27783535335821	902.6088020001534	1940.926526306999	877.0224771977923	975.7309494182704	1808.904443356392	152.1034117927797	916.8971116582501	1781.417001302621	182.1896068932717	955.272593396809	1839.314750139673	221.3421448521093	888.0058263802947	1818.297540565828	249.5205852550544	929.190788811874	1993.171162007724	482.6091138698184	832.6218277276425	1944.800646619874	477.4665646251631	884.6763446630951	1968.053725178258	589.8986889416498	824.1893167088351	1924.100345426291	586.0714607273345	875.6533550209684	2125.895933628292	823.2664542891284	1119.896942527858	1861.90166443112	308.0657007520142	1083.703653439563	1835.262191532321	493.7869070626523	1057.097737663319	1846.954317991779	464.4314633886003	1103.211020804312	1876.486395973734	475.8886369410283	1059.124300992188	2084.29286313691	913.6204920071442	1150.620327053666	1803.765769157803	279.1463170102185	1034.378220803866	1810.217717328341	321.9221398683343	1143.658364293921	1961.818594218656	867.3037320629069	1066.602258668152	1945.467415577801	430.3554830460839	1119.105630394281	1949.229012797938	460.9181099092837	1078.942778275007	2026.409731826169	446.0281728324455	1138.231874209916	2026.311710307406	478.6329385740083	1096.551131529589	2211.694679277779	496.1925721695315	1171.944115726976	2173.232103937577	476.6971546661248	1117.877078775198	2135.720890736615	574.5948562374393	1179.933188137386	2093.842834212244	542.0172935036871	1135.207405348312	
2253	15.01333333333333	2085.083573779903	842.5552557877418	858.5192342389389	1658.845060005575	68.19145408948481	988.8961417239836	1690.87203292863	82.02947917242857	942.1721831378901	1685.284942098491	111.5264732873772	990.5100664574509	2036.179712818014	914.3771710254749	838.5142211330431	1876.272997151157	31.32649777472127	1008.194684451735	1828.428225893423	37.80150623181814	902.7586300770547	1942.599331555923	880.8691515908171	973.3757050158885	1783.628547181496	158.6103964281548	917.3228082973162	1756.652043808606	188.8826514698468	955.9242941562788	1815.146891290276	227.5523967260011	888.8840057218832	1794.676414742846	255.7702831049088	930.3226337613097	1978.119697225067	486.4999219542558	834.1526642490479	1929.456371430081	484.4671565563813	886.1488804546195	1958.959118428383	594.9695974044281	824.7231832473451	1914.934256429103	594.065050393995	876.2971660733854	2126.637481608441	828.636331213545	1118.98902153786	1887.148390028367	289.2391455045916	1082.482062085046	1841.921994698455	471.8934660873696	1059.550027203186	1856.606857710248	443.0180733309377	1105.093710183393	1884.748415549802	458.2559828823393	1061.241850674232	2084.561414230606	918.3306466925053	1149.695824923685	1832.100473480877	255.6872713503311	1032.504532419779	1834.289705185004	296.6967605800143	1142.858996028171	1962.575824071108	871.6072563590037	1064.726803717147	1959.067363046649	417.3630850254802	1119.741966957699	1960.081025681181	449.3246771429907	1080.503740456255	2038.537383981753	439.426994983184	1139.202840504978	2035.4336558464	473.0797007840021	1098.437801388031	2222.618702509052	508.6482605952363	1170.845134319047	2184.981137296944	484.3077287194104	1117.569161398869	2143.56957467025	583.8796420158423	1179.120712488022	2102.631859754639	549.5509130389636	1134.665037585011	
2254	15.02	2087.753668665219	844.9018805215649	857.3050032392068	1632.798638595586	79.46542780619816	988.7099708197293	1665.361861401263	90.95110466765951	941.740687819357	1661.333695259463	121.3056835021146	989.7947743359581	2041.23888073833	918.1636371690697	837.0593715905075	1846.547613961852	30.44609714269355	1008.569827719838	1799.604218143606	38.59492609521116	902.8403694206438	1944.686232826637	884.8949426575385	970.9724025775873	1759.40734091485	166.1331793704304	917.5594212801375	1733.0705635176	196.3158885535596	956.6210557638435	1791.747966204869	234.9423667418694	889.7590676002059	1771.933458125042	262.9549412364357	931.6195826112623	1963.301115884331	491.7787175607332	835.5688509171224	1914.785024655354	492.9864339239826	887.7091055823671	1950.314057713333	601.0416648500304	825.1339591582539	1906.596415418419	603.1483174645839	876.9604432407506	2127.773686642725	834.5233293538435	1117.878233541908	1913.673897033726	270.5253401870073	1081.111621545243	1849.771900929169	448.1216668461184	1061.643964297432	1867.482407877216	420.1123129460624	1106.610329419093	1893.852054801724	439.0473618029481	1063.125245882353	2085.380475630599	923.5024320308436	1148.563044998171	1862.286326666028	232.4560449213897	1030.342838903606	1860.264550605752	271.3926158247535	1141.703808269134	1963.658825394999	876.2271081516458	1062.87785513482	1973.199086554341	403.6347152313695	1120.159562577149	1971.233109230381	436.658674746755	1081.815324227555	2050.626629087534	432.1650461655101	1139.946390357353	2044.301535636438	466.5132638708372	1100.072049274754	2232.358632247331	521.2466801598698	1169.665924657087	2195.208550763489	492.3961775489039	1117.373065453671	2150.81138059695	593.6404122290875	1178.458522894328	2110.609335582952	557.7992492928623	1134.326577102523	
